<?xml version="1.0" encoding="UTF-8" standalone="no"?>
<!-- Created with Digital by H.Neemann -->
<!-- created: Mon May 23 11:53:11 PDT 2022 -->

<svg
   xmlns:svg="http://www.w3.org/2000/svg"
   xmlns="http://www.w3.org/2000/svg"
   width="8.2mm"
   height="17.6mm"
   viewBox="-12 -4 41 88">
<g stroke-linecap="square">
<path d="M -7,69 L -7,44 L 7,44 L 7,69 Z" stroke="#000000" stroke-width="4.0" fill="none"/>
<line x1="0.0" y1="70.0" x2="0.0" y2="80.0" stroke="#000000" stroke-linecap="square" stroke-width="4.0" />
<path d="M -10,11 L 10,11 L 0,29 Z" stroke="#000000" stroke-width="4.0" fill="none"/>
<line x1="-10.0" y1="29.0" x2="10.0" y2="29.0" stroke="#000000" stroke-linecap="square" stroke-width="4.0" />
<line x1="0.0" y1="29.0" x2="0.0" y2="44.0" stroke="#000000" stroke-linecap="square" stroke-width="4.0" />
<line x1="0.0" y1="0.0" x2="0.0" y2="9.0" stroke="#000000" stroke-linecap="square" stroke-width="4.0" />
<line x1="20.0" y1="12.0" x2="11.0" y2="21.0" stroke="#000000" stroke-linecap="square" stroke-width="2.0" />
<line x1="18.0" y1="11.0" x2="21.0" y2="11.0" stroke="#000000" stroke-linecap="square" stroke-width="2.0" />
<line x1="21.0" y1="14.0" x2="21.0" y2="11.0" stroke="#000000" stroke-linecap="square" stroke-width="2.0" />
<line x1="26.0" y1="18.0" x2="17.0" y2="27.0" stroke="#000000" stroke-linecap="square" stroke-width="2.0" />
<line x1="24.0" y1="17.0" x2="27.0" y2="17.0" stroke="#000000" stroke-linecap="square" stroke-width="2.0" />
<line x1="27.0" y1="20.0" x2="27.0" y2="17.0" stroke="#000000" stroke-linecap="square" stroke-width="2.0" />
<circle cx="0.0" cy="0.0" r="2.0" stroke="#0000b2" stroke-width="4.0" fill="#0000b2" />
<circle cx="0.0" cy="80.0" r="2.0" stroke="#0000b2" stroke-width="4.0" fill="#0000b2" />
</g>
</svg>