<?xml version="1.0" encoding="UTF-8" standalone="no"?>
<!-- Created with Digital by H.Neemann -->
<!-- created: Mon May 23 11:53:36 PDT 2022 -->

<svg
   xmlns:svg="http://www.w3.org/2000/svg"
   xmlns="http://www.w3.org/2000/svg"
   width="16.8mm"
   height="29.6mm"
   viewBox="-12 -4 84 148">
<g stroke-linecap="square">
<path d="M -10,1 L 70,1 L 70,139 L -10,139 Z" stroke="#000000" stroke-width="4.0" fill="none"/>
<path d="M 12.04,5 L 52.8,5 L 58.15,10.61 L 52.28,16.22 L 11.52,16.22 L 6.17,10.61 Z" stroke="#ff0000" stroke-width="0.0" fill="#ff0000" fill-opacity="1.0"/>
<path d="M 59.49,12.01 L 64.84,17.62 L 62.74,62.99 L 56.87,68.6 L 51.52,62.99 L 53.62,17.62 Z" stroke="#ff0000" stroke-width="0.0" fill="#ff0000" fill-opacity="1.0"/>
<path d="M 56.74,71.4 L 62.09,77.01 L 60,122.38 L 54.13,127.99 L 48.78,122.38 L 50.88,77.01 Z" stroke="#ff0000" stroke-width="0.0" fill="#ff0000" fill-opacity="1.0"/>
<path d="M 6.55,123.78 L 47.32,123.78 L 52.67,129.39 L 46.8,135 L 6.04,135 L 0.69,129.39 Z" stroke="#ff0000" stroke-width="0.0" fill="#ff0000" fill-opacity="1.0"/>
<path d="M 1.96,71.4 L 7.31,77.01 L 5.22,122.38 L -0.64,127.99 L -5.99,122.38 L -3.9,77.01 Z" stroke="#ff0000" stroke-width="0.0" fill="#ff0000" fill-opacity="1.0"/>
<path d="M 4.7,12.01 L 10.05,17.62 L 7.96,62.99 L 2.09,68.6 L -3.25,62.99 L -1.15,17.62 Z" stroke="#ff0000" stroke-width="0.0" fill="#ff0000" fill-opacity="1.0"/>
<path d="M 9.3,64.39 L 50.06,64.39 L 55.41,70 L 49.54,75.61 L 8.78,75.61 L 3.43,70 Z" stroke="#ff0000" stroke-width="0.0" fill="#ff0000" fill-opacity="1.0"/>
<circle cx="62.0" cy="131.0" r="4.0" stroke="#ff0000" stroke-width="0.0" fill="#ff0000" />
<circle cx="0.0" cy="0.0" r="2.0" stroke="#0000b2" stroke-width="4.0" fill="#0000b2" />
<circle cx="20.0" cy="0.0" r="2.0" stroke="#0000b2" stroke-width="4.0" fill="#0000b2" />
<circle cx="40.0" cy="0.0" r="2.0" stroke="#0000b2" stroke-width="4.0" fill="#0000b2" />
<circle cx="60.0" cy="0.0" r="2.0" stroke="#0000b2" stroke-width="4.0" fill="#0000b2" />
<circle cx="0.0" cy="140.0" r="2.0" stroke="#0000b2" stroke-width="4.0" fill="#0000b2" />
<circle cx="20.0" cy="140.0" r="2.0" stroke="#0000b2" stroke-width="4.0" fill="#0000b2" />
<circle cx="40.0" cy="140.0" r="2.0" stroke="#0000b2" stroke-width="4.0" fill="#0000b2" />
<circle cx="60.0" cy="140.0" r="2.0" stroke="#0000b2" stroke-width="4.0" fill="#0000b2" />
</g>
</svg>